<svg width="670" height="504" viewBox="0 0 670 504" fill="none" xmlns="http://www.w3.org/2000/svg">
<g filter="url(#filter0_d_102_2)">
<path d="M150.75 410V372.75H76V354.75L128.25 233.25L147.75 241.5L100.5 352.25H150.75V302.5H173.25V352.25H194V372.75H173.25V410H150.75Z" fill="#F7D87A"/>
</g>
<g filter="url(#filter1_d_102_2)">
<path d="M540.75 410V372.75H466V354.75L518.25 233.25L537.75 241.5L490.5 352.25H540.75V302.5H563.25V352.25H584V372.75H563.25V410H540.75Z" fill="#F7D87A"/>
</g>
<g filter="url(#filter2_di_102_2)">
<circle cx="330" cy="280" r="100" fill="#F7D87A"/>
<circle cx="330" cy="280" r="99.5" stroke="#F7D87A"/>
</g>
<circle cx="283" cy="250" r="12" fill="#CA9917"/>
<circle cx="389" cy="314" r="12" fill="#CA9917"/>
<circle cx="349" cy="351" r="9" fill="#CA9917"/>
<circle cx="330" cy="297" r="12" stroke="#CA9917" stroke-width="2"/>
<circle cx="282.5" cy="327.5" r="16.5" stroke="#CA9917" stroke-width="2"/>
<ellipse cx="371.267" cy="232.099" rx="17.5" ry="47.5" transform="rotate(-52.4979 371.267 232.099)" fill="#FCF3DA"/>
<path d="M99 123L107.981 150.639H137.042L113.531 167.721L122.511 195.361L99 178.279L75.4886 195.361L84.4691 167.721L60.9577 150.639H90.0194L99 123Z" fill="#F7D87A"/>
<path d="M635 381L642.858 405.184L668.287 405.184L647.714 420.131L655.572 444.316L635 429.369L614.428 444.316L622.286 420.131L601.713 405.184L627.142 405.184L635 381Z" fill="#F7D87A"/>
<path d="M30 318L36.7354 338.729H58.5317L40.8981 351.541L47.6336 372.271L30 359.459L12.3664 372.271L19.1019 351.541L1.4683 338.729H23.2646L30 318Z" fill="#F7D87A"/>
<path d="M339.5 79L344.552 94.5471H360.899L347.674 104.156L352.725 119.703L339.5 110.094L326.275 119.703L331.326 104.156L318.101 94.5471H334.448L339.5 79Z" fill="#F7D87A"/>
<path d="M256 380L257.123 383.455H260.755L257.816 385.59L258.939 389.045L256 386.91L253.061 389.045L254.184 385.59L251.245 383.455H254.877L256 380Z" fill="#F7D87A"/>
<path d="M659 298L661.245 304.91H668.511L662.633 309.18L664.878 316.09L659 311.82L653.122 316.09L655.367 309.18L649.489 304.91H656.755L659 298Z" fill="#F7D87A"/>
<path d="M349.5 439L356.797 461.457H380.409L361.306 475.336L368.603 497.793L349.5 483.914L330.397 497.793L337.694 475.336L318.591 461.457H342.203L349.5 439Z" fill="#F7D87A"/>
<path d="M231 188L235.49 201.82H250.021L238.265 210.361L242.756 224.18L231 215.639L219.244 224.18L223.735 210.361L211.979 201.82H226.51L231 188Z" fill="#F7D87A"/>
<path d="M439 391L442.368 401.365H453.266L444.449 407.771L447.817 418.135L439 411.729L430.183 418.135L433.551 407.771L424.734 401.365H435.632L439 391Z" fill="#F7D87A"/>
<path d="M221 439L223.245 445.91H230.511L224.633 450.18L226.878 457.09L221 452.82L215.122 457.09L217.367 450.18L211.489 445.91H218.755L221 439Z" fill="#F7D87A"/>
<path d="M401 184L402.123 187.455H405.755L402.816 189.59L403.939 193.045L401 190.91L398.061 193.045L399.184 189.59L396.245 187.455H399.877L401 184Z" fill="#F7D87A"/>
<path d="M591 188L596.613 205.275H614.776L600.082 215.951L605.695 233.225L591 222.549L576.305 233.225L581.918 215.951L567.224 205.275H585.387L591 188Z" fill="#F7D87A"/>
<g clip-path="url(#clip0_102_2)">
<path d="M539.375 28.1719H540.06C544.764 28.1774 549.272 30.0294 552.595 33.3206C555.918 36.6118 557.783 41.073 557.78 45.7233C557.785 46.8781 557.672 48.0304 557.443 49.1627C556.787 52.394 555.225 55.3776 552.934 57.7719C550.644 60.1662 547.718 61.8745 544.491 62.7012C541.265 63.528 537.868 63.4398 534.69 62.4468C531.511 61.4538 528.68 59.5961 526.52 57.0863C524.359 54.5765 522.958 51.516 522.474 48.2552C521.991 44.9943 522.446 41.6648 523.788 38.6478C525.129 35.6308 527.303 33.0482 530.059 31.1955C532.816 29.3428 536.044 28.295 539.375 28.1719Z" fill="#00C0F3"/>
<path d="M513.507 72.0296L503.673 110.416C503.81 107.81 498.845 100.827 491.614 93.6666C484.382 86.5064 477.32 81.6183 474.685 81.7538L513.507 72.0296Z" fill="#F283B4"/>
<path d="M498.086 110.145C498.091 111.974 497.849 113.797 497.369 115.564C496.363 119.201 494.391 122.505 491.656 125.132C487.617 128.994 482.232 131.173 476.613 131.219C474.264 132.136 471.761 132.61 469.235 132.615C464.692 132.615 458.567 132.396 455.236 129.906C452.896 126.779 453.476 121.568 453.476 117.399C453.474 115.124 453.888 112.868 454.699 110.739C454.699 110.53 454.699 110.311 454.699 110.113C454.7 104.861 456.706 99.802 460.317 95.9491C463.076 93.0056 466.609 90.8799 470.521 89.8103C472.426 89.3075 474.389 89.0518 476.361 89.0495C479.188 89.0233 481.993 89.5484 484.616 90.5945C487.238 91.6406 489.626 93.1874 491.644 95.1464C493.661 97.1054 495.268 99.4383 496.374 102.012C497.479 104.585 498.061 107.349 498.086 110.145Z" fill="url(#paint0_linear_102_2)" fill-opacity="0.85"/>
<path d="M540.018 29.7144H539.807C539.55 29.7144 539.304 29.8154 539.122 29.9953C538.94 30.1751 538.838 30.419 538.838 30.6733C538.838 30.9276 538.94 31.1715 539.122 31.3513C539.304 31.5311 539.55 31.6322 539.807 31.6322C539.985 31.6341 540.16 31.5886 540.314 31.5006C540.468 31.4126 540.595 31.2852 540.682 31.1319C540.755 30.9998 540.794 30.8528 540.799 30.7027C540.803 30.5526 540.772 30.4037 540.707 30.2678C540.642 30.1319 540.546 30.0129 540.427 29.9204C540.307 29.8279 540.167 29.7645 540.018 29.7353V29.7144ZM551.455 34.8214C551.265 34.8255 551.079 34.8852 550.922 34.9931C550.766 35.1009 550.645 35.252 550.575 35.4276C550.504 35.6031 550.488 35.7952 550.528 35.9798C550.568 36.1644 550.662 36.3333 550.798 36.4653C550.935 36.5974 551.107 36.6866 551.295 36.722C551.482 36.7573 551.676 36.7371 551.852 36.664C552.028 36.5909 552.179 36.468 552.284 36.3108C552.39 36.1536 552.446 35.969 552.446 35.7803C552.445 35.653 552.418 35.5272 552.368 35.4101C552.317 35.2931 552.244 35.187 552.152 35.0979C552.06 35.0089 551.951 34.9387 551.831 34.8912C551.712 34.8438 551.584 34.8201 551.455 34.8214ZM555.935 46.1611C555.674 46.1583 555.423 46.2574 555.235 46.4369C555.048 46.6165 554.939 46.8619 554.934 47.1199C554.935 47.2466 554.961 47.3718 555.012 47.4882C555.063 47.6045 555.137 47.7097 555.229 47.7974L555.419 47.9329C555.566 48.0073 555.728 48.0465 555.893 48.0475C556.021 48.0475 556.147 48.0227 556.264 47.9745C556.382 47.9263 556.489 47.8557 556.579 47.7667C556.669 47.6776 556.74 47.5719 556.789 47.4556C556.838 47.3393 556.863 47.2146 556.863 47.0887C556.863 46.9627 556.838 46.8381 556.789 46.7217C556.74 46.6054 556.669 46.4997 556.579 46.4106C556.489 46.3216 556.382 46.251 556.264 46.2028C556.147 46.1546 556.021 46.1298 555.893 46.1298L555.935 46.1611ZM528.402 34.5713C528.212 34.5774 528.027 34.6388 527.872 34.7479C527.717 34.8569 527.597 35.0087 527.529 35.1844C527.46 35.36 527.446 35.5518 527.486 35.7357C527.527 35.9195 527.622 36.0875 527.759 36.2185C527.896 36.3494 528.069 36.4377 528.256 36.4722C528.443 36.5068 528.636 36.4861 528.812 36.4126C528.987 36.3392 529.137 36.2164 529.242 36.0595C529.347 35.9025 529.403 35.7184 529.403 35.5302C529.402 35.402 529.375 35.2753 529.324 35.1576C529.273 35.0398 529.198 34.9332 529.105 34.8441C529.012 34.7549 528.902 34.6849 528.781 34.638C528.66 34.5912 528.532 34.5685 528.402 34.5713ZM524.291 45.9422C524.1 45.9463 523.915 46.006 523.758 46.1138C523.601 46.2216 523.48 46.3728 523.41 46.5483C523.34 46.7239 523.324 46.916 523.364 47.1006C523.403 47.2852 523.497 47.4541 523.634 47.5861C523.77 47.7181 523.943 47.8074 524.13 47.8427C524.318 47.8781 524.512 47.8579 524.688 47.7848C524.864 47.7116 525.014 47.5887 525.12 47.4315C525.225 47.2743 525.282 47.0898 525.282 46.9011C525.274 46.6476 525.165 46.4075 524.98 46.2321C524.795 46.0568 524.547 45.9602 524.291 45.963V45.9422Z" fill="#00AEEF"/>
<path d="M550.733 89.1356L549.012 84.7314C547.045 79.6948 541.32 77.189 536.226 79.1344L520.09 85.2971C514.996 87.2426 512.462 92.9027 514.43 97.9393L516.15 102.344C518.118 107.38 523.842 109.886 528.936 107.941L545.072 101.778C550.166 99.8323 552.701 94.1722 550.733 89.1356Z" fill="#5B57A6"/>
<path d="M500.757 37.9339L495.774 35.9681C490.977 34.0761 485.538 36.3867 483.625 41.129L477.926 55.2528C476.012 59.995 478.349 65.3731 483.145 67.2651L488.129 69.2309C492.925 71.1229 498.364 68.8123 500.278 64.07L505.977 49.9462C507.89 45.204 505.553 39.8259 500.757 37.9339Z" fill="#5B57A6"/>
<path d="M585.103 24.2531C584.433 26.5714 583.641 28.8536 582.731 31.0902C581.062 25.7335 578.307 20.7689 574.635 16.4988C569.365 10.2453 562.935 5.97207 556.884 4.14814C559.488 3.17885 562.028 2.3659 564.484 1.71971C572.232 -0.291828 579.168 -0.594079 584.586 0.948444C587.685 7.22276 587.748 15.123 585.103 24.2531Z" fill="#6DCFF6"/>
<path d="M566.866 24.6908C560.015 16.5821 551.613 11.3605 544.33 9.99514C543.275 10.5371 542.306 11.1103 541.294 11.7044C540.018 12.4548 538.732 13.2365 537.446 14.0495C534.379 15.9985 531.301 18.1455 528.265 20.4801C527.917 20.7303 527.569 21.0013 527.211 21.2722C524.4 23.454 521.729 25.6983 519.2 28.0051C518.651 28.5054 518.145 29.0474 517.566 29.5164C516.986 29.9854 516.512 30.5586 515.974 31.0485C514.994 32.0074 514.024 32.9767 513.107 33.9459C494.902 52.9357 486.68 73.8431 493.374 85.5788C503.061 102.567 536.129 94.0001 562.186 64.7339L563.557 62.9725C566.107 59.6373 568.462 56.3681 570.619 53.165C571.884 51.2889 573.079 49.4407 574.203 47.6202C575.089 46.168 575.932 44.7401 576.733 43.3366C574.939 36.4534 571.563 30.0725 566.866 24.6908ZM557.443 49.1627C556.789 52.3924 555.229 55.3749 552.941 57.7688C550.653 60.1627 547.73 61.8713 544.506 62.6991C541.281 63.5269 537.887 63.4404 534.71 62.4496C531.533 61.4587 528.702 59.6034 526.542 57.0962C524.382 54.589 522.979 51.531 522.495 48.2724C522.01 45.0137 522.464 41.686 523.803 38.6702C525.142 35.6543 527.312 33.0721 530.066 31.2192C532.82 29.3663 536.046 28.3174 539.375 28.1927C539.597 28.1927 539.829 28.1927 540.06 28.1927C544.76 28.1983 549.265 30.0473 552.588 33.3341C555.91 36.6208 557.777 41.0766 557.78 45.7233C557.785 46.8781 557.672 48.0304 557.443 49.1627Z" fill="#6DCFF6"/>
<path d="M490.95 29.2353L490.549 29.0253C488.467 27.9326 485.882 28.7162 484.777 30.7755L467.791 62.4284C466.686 64.4877 467.479 67.0429 469.561 68.1355L469.962 68.3456C472.045 69.4382 474.629 68.6546 475.734 66.5953L492.72 34.9425C493.825 32.8831 493.032 30.328 490.95 29.2353Z" fill="#F84D98"/>
<path d="M553.634 104.345C555.634 103.369 556.455 100.975 555.468 98.9984C554.481 97.0214 552.06 96.2099 550.061 97.1856L519.473 112.113C517.473 113.089 516.652 115.483 517.639 117.46C518.626 119.436 521.047 120.248 523.046 119.272L553.634 104.345Z" fill="#F84D98"/>
<path d="M552.71 45.4628C552.71 45.6087 552.71 45.765 552.71 45.9109C552.623 48.3641 551.808 50.7377 550.366 52.7361C548.924 54.7345 546.92 56.2692 544.602 57.1491C542.285 58.0289 539.756 58.215 537.332 57.6841C534.909 57.1532 532.696 55.9288 530.971 54.1635C529.246 52.3982 528.085 50.17 527.632 47.7566C527.178 45.3432 527.453 42.8513 528.422 40.5913C529.391 38.3314 531.012 36.4033 533.081 35.0474C535.151 33.6915 537.578 32.9677 540.06 32.9662C540.618 32.9625 541.175 33.0009 541.726 33.0809C544.763 33.4797 547.55 34.9547 549.57 37.2319C551.59 39.5091 552.706 42.4337 552.71 45.4628Z" fill="#292929"/>
<path d="M540.798 30.6524C540.799 30.8124 540.759 30.97 540.682 31.111C540.595 31.2644 540.468 31.3917 540.314 31.4798C540.16 31.5678 539.985 31.6132 539.807 31.6113C539.55 31.6113 539.304 31.5103 539.122 31.3305C538.94 31.1506 538.838 30.9068 538.838 30.6524C538.838 30.3981 538.94 30.1542 539.122 29.9744C539.304 29.7946 539.55 29.6936 539.807 29.6936H540.018C540.24 29.7394 540.44 29.8601 540.582 30.0349C540.724 30.2098 540.801 30.428 540.798 30.6524Z" fill="#C7EAFB"/>
<path d="M552.509 35.7803C552.514 35.9749 552.459 36.1663 552.353 36.3302C552.247 36.494 552.093 36.6228 551.913 36.7002C551.732 36.7775 551.532 36.7999 551.339 36.7645C551.145 36.7291 550.966 36.6375 550.826 36.5013C550.685 36.3652 550.589 36.1907 550.549 36.0001C550.509 35.8095 550.527 35.6114 550.601 35.4312C550.676 35.251 550.803 35.0967 550.966 34.9881C551.129 34.8795 551.322 34.8215 551.519 34.8214C551.647 34.8201 551.775 34.8438 551.895 34.8912C552.014 34.9387 552.123 35.0089 552.215 35.0979C552.307 35.187 552.38 35.2931 552.431 35.4101C552.481 35.5272 552.508 35.653 552.509 35.7803Z" fill="#C7EAFB"/>
<path d="M529.403 35.551C529.41 35.748 529.356 35.9425 529.25 36.1093C529.144 36.2762 528.99 36.408 528.808 36.4878C528.625 36.5675 528.423 36.5916 528.227 36.557C528.03 36.5224 527.849 36.4307 527.706 36.2935C527.563 36.1564 527.464 35.9801 527.423 35.7872C527.381 35.5944 527.399 35.3937 527.474 35.2109C527.549 35.0282 527.677 34.8717 527.842 34.7614C528.008 34.6512 528.203 34.5922 528.402 34.5921C528.663 34.5893 528.915 34.6885 529.102 34.868C529.29 35.0475 529.398 35.293 529.403 35.551Z" fill="white"/>
<path d="M539.807 62.1178C540.355 62.1178 540.798 61.6885 540.798 61.159C540.798 60.6294 540.355 60.2001 539.807 60.2001C539.26 60.2001 538.817 60.6294 538.817 61.159C538.817 61.6885 539.26 62.1178 539.807 62.1178Z" fill="white"/>
<path d="M524.291 47.8808C524.838 47.8808 525.282 47.4515 525.282 46.9219C525.282 46.3923 524.838 45.963 524.291 45.963C523.744 45.963 523.3 46.3923 523.3 46.9219C523.3 47.4515 523.744 47.8808 524.291 47.8808Z" fill="white"/>
<path d="M551.118 57.9489C551.665 57.9489 552.109 57.5196 552.109 56.99C552.109 56.4604 551.665 56.0311 551.118 56.0311C550.571 56.0311 550.127 56.4604 550.127 56.99C550.127 57.5196 550.571 57.9489 551.118 57.9489Z" fill="white"/>
<path d="M529.393 58.2928C529.94 58.2928 530.384 57.8635 530.384 57.3339C530.384 56.8044 529.94 56.3751 529.393 56.3751C528.846 56.3751 528.402 56.8044 528.402 57.3339C528.402 57.8635 528.846 58.2928 529.393 58.2928Z" fill="white"/>
<path d="M582.731 31.0902C581.012 35.2973 579.015 39.3883 576.754 43.3366C574.96 36.4534 571.584 30.0725 566.888 24.6908C560.036 16.5821 551.635 11.3605 544.351 9.99514C548.392 7.76774 552.588 5.82436 556.905 4.17941C562.935 6.00333 569.375 10.2765 574.646 16.53C578.31 20.7918 581.061 25.7454 582.731 31.0902Z" fill="#7769AF"/>
<path d="M540.798 30.6524C540.799 30.8124 540.759 30.97 540.682 31.111C540.595 31.2644 540.468 31.3917 540.314 31.4798C540.16 31.5678 539.985 31.6132 539.807 31.6113C539.55 31.6113 539.304 31.5103 539.122 31.3305C538.94 31.1506 538.838 30.9068 538.838 30.6524C538.838 30.3981 538.94 30.1542 539.122 29.9744C539.304 29.7946 539.55 29.6936 539.807 29.6936H540.018C540.24 29.7394 540.44 29.8601 540.582 30.0349C540.724 30.2098 540.801 30.428 540.798 30.6524Z" fill="white"/>
<path d="M552.509 35.7803C552.514 35.9749 552.459 36.1663 552.353 36.3302C552.247 36.494 552.093 36.6228 551.913 36.7002C551.732 36.7775 551.532 36.7999 551.339 36.7645C551.145 36.7291 550.966 36.6375 550.826 36.5013C550.685 36.3652 550.589 36.1907 550.549 36.0001C550.509 35.8095 550.527 35.6114 550.601 35.4312C550.676 35.251 550.803 35.0967 550.966 34.9881C551.129 34.8795 551.322 34.8215 551.519 34.8214C551.647 34.8201 551.775 34.8438 551.895 34.8912C552.014 34.9387 552.123 35.0089 552.215 35.0979C552.307 35.187 552.38 35.2931 552.431 35.4101C552.481 35.5272 552.508 35.653 552.509 35.7803Z" fill="white"/>
</g>
<defs>
<filter id="filter0_d_102_2" x="72" y="233.25" width="126" height="184.75" filterUnits="userSpaceOnUse" color-interpolation-filters="sRGB">
<feFlood flood-opacity="0" result="BackgroundImageFix"/>
<feColorMatrix in="SourceAlpha" type="matrix" values="0 0 0 0 0 0 0 0 0 0 0 0 0 0 0 0 0 0 127 0" result="hardAlpha"/>
<feOffset dy="4"/>
<feGaussianBlur stdDeviation="2"/>
<feComposite in2="hardAlpha" operator="out"/>
<feColorMatrix type="matrix" values="0 0 0 0 0 0 0 0 0 0 0 0 0 0 0 0 0 0 0.25 0"/>
<feBlend mode="normal" in2="BackgroundImageFix" result="effect1_dropShadow_102_2"/>
<feBlend mode="normal" in="SourceGraphic" in2="effect1_dropShadow_102_2" result="shape"/>
</filter>
<filter id="filter1_d_102_2" x="462" y="233.25" width="126" height="184.75" filterUnits="userSpaceOnUse" color-interpolation-filters="sRGB">
<feFlood flood-opacity="0" result="BackgroundImageFix"/>
<feColorMatrix in="SourceAlpha" type="matrix" values="0 0 0 0 0 0 0 0 0 0 0 0 0 0 0 0 0 0 127 0" result="hardAlpha"/>
<feOffset dy="4"/>
<feGaussianBlur stdDeviation="2"/>
<feComposite in2="hardAlpha" operator="out"/>
<feColorMatrix type="matrix" values="0 0 0 0 0 0 0 0 0 0 0 0 0 0 0 0 0 0 0.25 0"/>
<feBlend mode="normal" in2="BackgroundImageFix" result="effect1_dropShadow_102_2"/>
<feBlend mode="normal" in="SourceGraphic" in2="effect1_dropShadow_102_2" result="shape"/>
</filter>
<filter id="filter2_di_102_2" x="226" y="180" width="208" height="210" filterUnits="userSpaceOnUse" color-interpolation-filters="sRGB">
<feFlood flood-opacity="0" result="BackgroundImageFix"/>
<feColorMatrix in="SourceAlpha" type="matrix" values="0 0 0 0 0 0 0 0 0 0 0 0 0 0 0 0 0 0 127 0" result="hardAlpha"/>
<feOffset dy="4"/>
<feGaussianBlur stdDeviation="2"/>
<feComposite in2="hardAlpha" operator="out"/>
<feColorMatrix type="matrix" values="0 0 0 0 1 0 0 0 0 0.964706 0 0 0 0 0.509804 0 0 0 1 0"/>
<feBlend mode="normal" in2="BackgroundImageFix" result="effect1_dropShadow_102_2"/>
<feBlend mode="normal" in="SourceGraphic" in2="effect1_dropShadow_102_2" result="shape"/>
<feColorMatrix in="SourceAlpha" type="matrix" values="0 0 0 0 0 0 0 0 0 0 0 0 0 0 0 0 0 0 127 0" result="hardAlpha"/>
<feOffset dy="10"/>
<feGaussianBlur stdDeviation="5"/>
<feComposite in2="hardAlpha" operator="arithmetic" k2="-1" k3="1"/>
<feColorMatrix type="matrix" values="0 0 0 0 0.9875 0 0 0 0 0.829335 0 0 0 0 0.34974 0 0 0 1 0"/>
<feBlend mode="normal" in2="shape" result="effect2_innerShadow_102_2"/>
</filter>
<linearGradient id="paint0_linear_102_2" x1="475.749" y1="89.0485" x2="475.749" y2="132.615" gradientUnits="userSpaceOnUse">
<stop stop-color="#FF6F00"/>
<stop offset="1" stop-color="#FFF682"/>
</linearGradient>
<clipPath id="clip0_102_2">
<rect width="150" height="150" fill="white" transform="translate(437)"/>
</clipPath>
</defs>
</svg>
